<svg width="508.0" height="504.0" viewBox="0 0 508.0 504.0" xmlns="http://www.w3.org/2000/svg">
<style>/* font and background color specifications */
svg {
    font-family: SFMono-Regular,Consolas,Liberation Mono,Menlo,monospace;
    font-size: 14px;
    font-kerning: normal;
    text-rendering: optimizeLegibility;
    fill: #24292e;
}

/* default key styling */
rect {
    fill: #f6f8fa;
    stroke: #c9cccf;
    stroke-width: 1;
}

/* color accent for combo boxes */
rect.combo {
    fill: #cdf;
}

/* color accent for held keys */
rect.held, rect.combo.held {
    fill: #fdd;
}

/* color accent for ghost (optional) keys */
rect.ghost, rect.combo.ghost {
    fill: #ddd;
}

text {
    text-anchor: middle;
    dominant-baseline: middle;
}

/* styling for layer labels */
text.label {
    font-weight: bold;
    text-anchor: start;
    stroke: white;
    stroke-width: 2;
    paint-order: stroke;
}

/* styling for combo tap, and key hold/shifted label text */
text.combo, text.hold, text.shifted {
    font-size: 11px;
}

text.hold {
    text-anchor: middle;
    dominant-baseline: auto;
}

text.shifted {
    text-anchor: middle;
    dominant-baseline: hanging;
}

/* styling for hold/shifted label text in combo box */
text.combo.hold, text.combo.shifted {
    font-size: 8px;
}

/* styling for combo dendrons */
path {
    stroke-width: 1;
    stroke: gray;
    fill: none;
}
</style>
<g class="layer-L0">
<text x="30.0" y="28.0" class="label">L0:</text>
<rect rx="6.0" ry="6.0" x="32.0" y="58.0" width="52.0" height="52.0" class=""/>
<text x="58.0" y="84.0" class="tap">F1</text>
<text x="58.0" y="108.0" class="hold">L1</text>
<rect rx="6.0" ry="6.0" x="88.0" y="58.0" width="52.0" height="52.0" class=""/>
<text x="114.0" y="84.0" class="tap">F2</text>
<rect rx="6.0" ry="6.0" x="144.0" y="58.0" width="52.0" height="52.0" class=""/>
<text x="170.0" y="84.0" class="tap">F3</text>
<rect rx="6.0" ry="6.0" x="200.0" y="58.0" width="52.0" height="52.0" class=""/>
<text x="226.0" y="84.0" class="tap">F4</text>
<rect rx="6.0" ry="6.0" x="256.0" y="58.0" width="52.0" height="52.0" class=""/>
<text x="282.0" y="84.0" class="tap">F5</text>
<rect rx="6.0" ry="6.0" x="312.0" y="58.0" width="52.0" height="52.0" class=""/>
<text x="338.0" y="84.0" class="tap">F6</text>
<rect rx="6.0" ry="6.0" x="368.0" y="58.0" width="52.0" height="52.0" class=""/>
<text x="394.0" y="84.0" class="tap">F7</text>
<rect rx="6.0" ry="6.0" x="424.0" y="58.0" width="52.0" height="52.0" class=""/>
<text x="450.0" y="84.0" class="tap">
<tspan x="450.0" dy="-0.6em">KB</tspan><tspan x="450.0" dy="1.2em">MUTE</tspan></text>
</g>
<g class="layer-L1">
<text x="30.0" y="140.0" class="label">L1:</text>
<rect rx="6.0" ry="6.0" x="32.0" y="170.0" width="52.0" height="52.0" class="held"/>
<rect rx="6.0" ry="6.0" x="88.0" y="170.0" width="52.0" height="52.0" class=""/>
<text x="114.0" y="196.0" class="tap">RALT(RCMD(LEFT))</text>
<rect rx="6.0" ry="6.0" x="144.0" y="170.0" width="52.0" height="52.0" class=""/>
<text x="170.0" y="196.0" class="tap">RALT(RCMD(V))</text>
<rect rx="6.0" ry="6.0" x="200.0" y="170.0" width="52.0" height="52.0" class=""/>
<text x="226.0" y="196.0" class="tap">RALT(RCMD(M))</text>
<rect rx="6.0" ry="6.0" x="256.0" y="170.0" width="52.0" height="52.0" class=""/>
<text x="282.0" y="196.0" class="tap">RALT(RCMD(N))</text>
<rect rx="6.0" ry="6.0" x="312.0" y="170.0" width="52.0" height="52.0" class=""/>
<text x="338.0" y="196.0" class="tap">LGUI(F12)</text>
<rect rx="6.0" ry="6.0" x="368.0" y="170.0" width="52.0" height="52.0" class=""/>
<rect rx="6.0" ry="6.0" x="424.0" y="170.0" width="52.0" height="52.0" class=""/>
<text x="450.0" y="196.0" class="tap">
<tspan x="450.0" dy="-0.6em">QK</tspan><tspan x="450.0" dy="1.2em">REBOOT</tspan></text>
</g>
<g class="layer-L2">
<text x="30.0" y="252.0" class="label">L2:</text>
<rect rx="6.0" ry="6.0" x="32.0" y="282.0" width="52.0" height="52.0" class=""/>
<rect rx="6.0" ry="6.0" x="88.0" y="282.0" width="52.0" height="52.0" class=""/>
<rect rx="6.0" ry="6.0" x="144.0" y="282.0" width="52.0" height="52.0" class=""/>
<rect rx="6.0" ry="6.0" x="200.0" y="282.0" width="52.0" height="52.0" class=""/>
<rect rx="6.0" ry="6.0" x="256.0" y="282.0" width="52.0" height="52.0" class=""/>
<rect rx="6.0" ry="6.0" x="312.0" y="282.0" width="52.0" height="52.0" class=""/>
<rect rx="6.0" ry="6.0" x="368.0" y="282.0" width="52.0" height="52.0" class=""/>
<rect rx="6.0" ry="6.0" x="424.0" y="282.0" width="52.0" height="52.0" class=""/>
</g>
<g class="layer-L3">
<text x="30.0" y="364.0" class="label">L3:</text>
<rect rx="6.0" ry="6.0" x="32.0" y="394.0" width="52.0" height="52.0" class=""/>
<rect rx="6.0" ry="6.0" x="88.0" y="394.0" width="52.0" height="52.0" class=""/>
<rect rx="6.0" ry="6.0" x="144.0" y="394.0" width="52.0" height="52.0" class=""/>
<rect rx="6.0" ry="6.0" x="200.0" y="394.0" width="52.0" height="52.0" class=""/>
<rect rx="6.0" ry="6.0" x="256.0" y="394.0" width="52.0" height="52.0" class=""/>
<rect rx="6.0" ry="6.0" x="312.0" y="394.0" width="52.0" height="52.0" class=""/>
<rect rx="6.0" ry="6.0" x="368.0" y="394.0" width="52.0" height="52.0" class=""/>
<rect rx="6.0" ry="6.0" x="424.0" y="394.0" width="52.0" height="52.0" class=""/>
</g>
</svg>
