<svg width="676.0" height="1176.0" viewBox="0 0 676.0 1176.0" xmlns="http://www.w3.org/2000/svg">
<style>/* font and background color specifications */
svg {
    font-family: SFMono-Regular,Consolas,Liberation Mono,Menlo,monospace;
    font-size: 14px;
    font-kerning: normal;
    text-rendering: optimizeLegibility;
    fill: #24292e;
}

/* default key styling */
rect {
    fill: #f6f8fa;
    stroke: #c9cccf;
    stroke-width: 1;
}

/* color accent for combo boxes */
rect.combo {
    fill: #cdf;
}

/* color accent for held keys */
rect.held, rect.combo.held {
    fill: #fdd;
}

/* color accent for ghost (optional) keys */
rect.ghost, rect.combo.ghost {
    fill: #ddd;
}

text {
    text-anchor: middle;
    dominant-baseline: middle;
}

/* styling for layer labels */
text.label {
    font-weight: bold;
    text-anchor: start;
    stroke: white;
    stroke-width: 2;
    paint-order: stroke;
}

/* styling for combo tap, and key hold/shifted label text */
text.combo, text.hold, text.shifted {
    font-size: 11px;
}

text.hold {
    text-anchor: middle;
    dominant-baseline: auto;
}

text.shifted {
    text-anchor: middle;
    dominant-baseline: hanging;
}

/* styling for hold/shifted label text in combo box */
text.combo.hold, text.combo.shifted {
    font-size: 8px;
}

/* styling for combo dendrons */
path {
    stroke-width: 1;
    stroke: gray;
    fill: none;
}
</style>
<g class="layer-L0">
<text x="30.0" y="28.0" class="label">L0:</text>
<rect rx="6.0" ry="6.0" x="32.0" y="58.0" width="52.0" height="52.0" class=""/>
<text x="58.0" y="84.0" class="tap">Q</text>
<rect rx="6.0" ry="6.0" x="88.0" y="58.0" width="52.0" height="52.0" class=""/>
<text x="114.0" y="84.0" class="tap">W</text>
<rect rx="6.0" ry="6.0" x="144.0" y="58.0" width="52.0" height="52.0" class=""/>
<text x="170.0" y="84.0" class="tap">F</text>
<rect rx="6.0" ry="6.0" x="200.0" y="58.0" width="52.0" height="52.0" class=""/>
<text x="226.0" y="84.0" class="tap">P</text>
<rect rx="6.0" ry="6.0" x="256.0" y="58.0" width="52.0" height="52.0" class=""/>
<text x="282.0" y="84.0" class="tap">G</text>
<rect rx="6.0" ry="6.0" x="368.0" y="58.0" width="52.0" height="52.0" class=""/>
<text x="394.0" y="84.0" class="tap">J</text>
<rect rx="6.0" ry="6.0" x="424.0" y="58.0" width="52.0" height="52.0" class=""/>
<text x="450.0" y="84.0" class="tap">L</text>
<rect rx="6.0" ry="6.0" x="480.0" y="58.0" width="52.0" height="52.0" class=""/>
<text x="506.0" y="84.0" class="tap">U</text>
<rect rx="6.0" ry="6.0" x="536.0" y="58.0" width="52.0" height="52.0" class=""/>
<text x="562.0" y="84.0" class="tap">Y</text>
<rect rx="6.0" ry="6.0" x="592.0" y="58.0" width="52.0" height="52.0" class=""/>
<text x="618.0" y="84.0" class="tap">BSPC</text>
<rect rx="6.0" ry="6.0" x="32.0" y="114.0" width="52.0" height="52.0" class=""/>
<text x="58.0" y="140.0" class="tap">A</text>
<rect rx="6.0" ry="6.0" x="88.0" y="114.0" width="52.0" height="52.0" class=""/>
<text x="114.0" y="140.0" class="tap">R</text>
<rect rx="6.0" ry="6.0" x="144.0" y="114.0" width="52.0" height="52.0" class=""/>
<text x="170.0" y="140.0" class="tap">S</text>
<rect rx="6.0" ry="6.0" x="200.0" y="114.0" width="52.0" height="52.0" class=""/>
<text x="226.0" y="140.0" class="tap">T</text>
<rect rx="6.0" ry="6.0" x="256.0" y="114.0" width="52.0" height="52.0" class=""/>
<text x="282.0" y="140.0" class="tap">D</text>
<rect rx="6.0" ry="6.0" x="368.0" y="114.0" width="52.0" height="52.0" class=""/>
<text x="394.0" y="140.0" class="tap">H</text>
<rect rx="6.0" ry="6.0" x="424.0" y="114.0" width="52.0" height="52.0" class=""/>
<text x="450.0" y="140.0" class="tap">N</text>
<rect rx="6.0" ry="6.0" x="480.0" y="114.0" width="52.0" height="52.0" class=""/>
<text x="506.0" y="140.0" class="tap">E</text>
<rect rx="6.0" ry="6.0" x="536.0" y="114.0" width="52.0" height="52.0" class=""/>
<text x="562.0" y="140.0" class="tap">I</text>
<rect rx="6.0" ry="6.0" x="592.0" y="114.0" width="52.0" height="52.0" class=""/>
<text x="618.0" y="140.0" class="tap">O</text>
<rect rx="6.0" ry="6.0" x="32.0" y="170.0" width="52.0" height="52.0" class=""/>
<text x="58.0" y="196.0" class="tap">Z</text>
<text x="58.0" y="220.0" class="hold">LSFT</text>
<rect rx="6.0" ry="6.0" x="88.0" y="170.0" width="52.0" height="52.0" class=""/>
<text x="114.0" y="196.0" class="tap">X</text>
<rect rx="6.0" ry="6.0" x="144.0" y="170.0" width="52.0" height="52.0" class=""/>
<text x="170.0" y="196.0" class="tap">C</text>
<rect rx="6.0" ry="6.0" x="200.0" y="170.0" width="52.0" height="52.0" class=""/>
<text x="226.0" y="196.0" class="tap">V</text>
<rect rx="6.0" ry="6.0" x="256.0" y="170.0" width="52.0" height="52.0" class=""/>
<text x="282.0" y="196.0" class="tap">B</text>
<rect rx="6.0" ry="6.0" x="368.0" y="170.0" width="52.0" height="52.0" class=""/>
<text x="394.0" y="196.0" class="tap">K</text>
<rect rx="6.0" ry="6.0" x="424.0" y="170.0" width="52.0" height="52.0" class=""/>
<text x="450.0" y="196.0" class="tap">M</text>
<rect rx="6.0" ry="6.0" x="480.0" y="170.0" width="52.0" height="52.0" class=""/>
<text x="506.0" y="196.0" class="tap">,</text>
<rect rx="6.0" ry="6.0" x="536.0" y="170.0" width="52.0" height="52.0" class=""/>
<text x="562.0" y="196.0" class="tap">.</text>
<rect rx="6.0" ry="6.0" x="592.0" y="170.0" width="52.0" height="52.0" class=""/>
<text x="618.0" y="196.0" class="tap">/</text>
<text x="618.0" y="220.0" class="hold">RSFT</text>
<rect rx="6.0" ry="6.0" x="144.0" y="226.0" width="52.0" height="52.0" class=""/>
<text x="170.0" y="252.0" class="tap">&#x27;</text>
<text x="170.0" y="276.0" class="hold">LGUI</text>
<rect rx="6.0" ry="6.0" x="200.0" y="226.0" width="52.0" height="52.0" class=""/>
<text x="226.0" y="252.0" class="tap">ENTER</text>
<text x="226.0" y="276.0" class="hold">LMO(_LOWER)</text>
<rect rx="6.0" ry="6.0" x="256.0" y="226.0" width="52.0" height="52.0" class=""/>
<text x="282.0" y="252.0" class="tap">SPC</text>
<text x="282.0" y="276.0" class="hold">LMO(_RAISE)</text>
<rect rx="6.0" ry="6.0" x="368.0" y="226.0" width="108.0" height="52.0" class=""/>
<text x="422.0" y="252.0" class="tap">TAB</text>
<text x="422.0" y="276.0" class="hold">LALT</text>
</g>
<g class="layer-L1">
<text x="30.0" y="308.0" class="label">L1:</text>
<rect rx="6.0" ry="6.0" x="32.0" y="338.0" width="52.0" height="52.0" class=""/>
<text x="58.0" y="364.0" class="tap">!</text>
<rect rx="6.0" ry="6.0" x="88.0" y="338.0" width="52.0" height="52.0" class=""/>
<text x="114.0" y="364.0" class="tap">@</text>
<rect rx="6.0" ry="6.0" x="144.0" y="338.0" width="52.0" height="52.0" class=""/>
<text x="170.0" y="364.0" class="tap">#</text>
<rect rx="6.0" ry="6.0" x="200.0" y="338.0" width="52.0" height="52.0" class=""/>
<text x="226.0" y="364.0" class="tap">$</text>
<rect rx="6.0" ry="6.0" x="256.0" y="338.0" width="52.0" height="52.0" class=""/>
<text x="282.0" y="364.0" class="tap">%</text>
<rect rx="6.0" ry="6.0" x="368.0" y="338.0" width="52.0" height="52.0" class=""/>
<text x="394.0" y="364.0" class="tap">^</text>
<rect rx="6.0" ry="6.0" x="424.0" y="338.0" width="52.0" height="52.0" class=""/>
<text x="450.0" y="364.0" class="tap">&amp;</text>
<rect rx="6.0" ry="6.0" x="480.0" y="338.0" width="52.0" height="52.0" class=""/>
<text x="506.0" y="364.0" class="tap">*</text>
<rect rx="6.0" ry="6.0" x="536.0" y="338.0" width="52.0" height="52.0" class=""/>
<text x="562.0" y="364.0" class="tap">(</text>
<rect rx="6.0" ry="6.0" x="592.0" y="338.0" width="52.0" height="52.0" class=""/>
<text x="618.0" y="364.0" class="tap">)</text>
<rect rx="6.0" ry="6.0" x="32.0" y="394.0" width="52.0" height="52.0" class=""/>
<text x="58.0" y="420.0" class="tap">_</text>
<rect rx="6.0" ry="6.0" x="88.0" y="394.0" width="52.0" height="52.0" class=""/>
<text x="114.0" y="420.0" class="tap">+</text>
<rect rx="6.0" ry="6.0" x="144.0" y="394.0" width="52.0" height="52.0" class=""/>
<text x="170.0" y="420.0" class="tap">{</text>
<rect rx="6.0" ry="6.0" x="200.0" y="394.0" width="52.0" height="52.0" class=""/>
<text x="226.0" y="420.0" class="tap">}</text>
<rect rx="6.0" ry="6.0" x="256.0" y="394.0" width="52.0" height="52.0" class=""/>
<text x="282.0" y="420.0" class="tap">|</text>
<rect rx="6.0" ry="6.0" x="368.0" y="394.0" width="52.0" height="52.0" class=""/>
<text x="394.0" y="420.0" class="tap">LEFT</text>
<rect rx="6.0" ry="6.0" x="424.0" y="394.0" width="52.0" height="52.0" class=""/>
<text x="450.0" y="420.0" class="tap">DOWN</text>
<rect rx="6.0" ry="6.0" x="480.0" y="394.0" width="52.0" height="52.0" class=""/>
<text x="506.0" y="420.0" class="tap">UP</text>
<rect rx="6.0" ry="6.0" x="536.0" y="394.0" width="52.0" height="52.0" class=""/>
<text x="562.0" y="420.0" class="tap">RGHT</text>
<rect rx="6.0" ry="6.0" x="592.0" y="394.0" width="52.0" height="52.0" class=""/>
<text x="618.0" y="420.0" class="tap">;</text>
<rect rx="6.0" ry="6.0" x="32.0" y="450.0" width="52.0" height="52.0" class=""/>
<text x="58.0" y="476.0" class="tap">ESC</text>
<text x="58.0" y="500.0" class="hold">LSFT</text>
<rect rx="6.0" ry="6.0" x="88.0" y="450.0" width="52.0" height="52.0" class=""/>
<text x="114.0" y="476.0" class="tap">LCTL</text>
<rect rx="6.0" ry="6.0" x="144.0" y="450.0" width="52.0" height="52.0" class=""/>
<text x="170.0" y="476.0" class="tap">LALT</text>
<rect rx="6.0" ry="6.0" x="200.0" y="450.0" width="52.0" height="52.0" class=""/>
<text x="226.0" y="476.0" class="tap">LGUI</text>
<rect rx="6.0" ry="6.0" x="256.0" y="450.0" width="52.0" height="52.0" class=""/>
<text x="282.0" y="476.0" class="tap">&#x27;</text>
<rect rx="6.0" ry="6.0" x="368.0" y="450.0" width="52.0" height="52.0" class=""/>
<text x="394.0" y="476.0" class="tap">HOME</text>
<rect rx="6.0" ry="6.0" x="424.0" y="450.0" width="52.0" height="52.0" class=""/>
<text x="450.0" y="476.0" class="tap">END</text>
<rect rx="6.0" ry="6.0" x="480.0" y="450.0" width="52.0" height="52.0" class=""/>
<text x="506.0" y="476.0" class="tap">PGUP</text>
<rect rx="6.0" ry="6.0" x="536.0" y="450.0" width="52.0" height="52.0" class=""/>
<text x="562.0" y="476.0" class="tap">PGDN</text>
<rect rx="6.0" ry="6.0" x="592.0" y="450.0" width="52.0" height="52.0" class=""/>
<text x="618.0" y="476.0" class="tap">BSPC</text>
<rect rx="6.0" ry="6.0" x="144.0" y="506.0" width="52.0" height="52.0" class=""/>
<rect rx="6.0" ry="6.0" x="200.0" y="506.0" width="52.0" height="52.0" class=""/>
<rect rx="6.0" ry="6.0" x="256.0" y="506.0" width="52.0" height="52.0" class=""/>
<rect rx="6.0" ry="6.0" x="368.0" y="506.0" width="108.0" height="52.0" class=""/>
<text x="422.0" y="532.0" class="tap">LCTL</text>
<text x="422.0" y="556.0" class="hold">sticky</text>
</g>
<g class="layer-L2">
<text x="30.0" y="588.0" class="label">L2:</text>
<rect rx="6.0" ry="6.0" x="32.0" y="618.0" width="52.0" height="52.0" class=""/>
<text x="58.0" y="644.0" class="tap">1</text>
<rect rx="6.0" ry="6.0" x="88.0" y="618.0" width="52.0" height="52.0" class=""/>
<text x="114.0" y="644.0" class="tap">2</text>
<rect rx="6.0" ry="6.0" x="144.0" y="618.0" width="52.0" height="52.0" class=""/>
<text x="170.0" y="644.0" class="tap">3</text>
<rect rx="6.0" ry="6.0" x="200.0" y="618.0" width="52.0" height="52.0" class=""/>
<text x="226.0" y="644.0" class="tap">4</text>
<rect rx="6.0" ry="6.0" x="256.0" y="618.0" width="52.0" height="52.0" class=""/>
<text x="282.0" y="644.0" class="tap">5</text>
<rect rx="6.0" ry="6.0" x="368.0" y="618.0" width="52.0" height="52.0" class=""/>
<text x="394.0" y="644.0" class="tap">6</text>
<rect rx="6.0" ry="6.0" x="424.0" y="618.0" width="52.0" height="52.0" class=""/>
<text x="450.0" y="644.0" class="tap">7</text>
<rect rx="6.0" ry="6.0" x="480.0" y="618.0" width="52.0" height="52.0" class=""/>
<text x="506.0" y="644.0" class="tap">8</text>
<rect rx="6.0" ry="6.0" x="536.0" y="618.0" width="52.0" height="52.0" class=""/>
<text x="562.0" y="644.0" class="tap">9</text>
<rect rx="6.0" ry="6.0" x="592.0" y="618.0" width="52.0" height="52.0" class=""/>
<text x="618.0" y="644.0" class="tap">0</text>
<rect rx="6.0" ry="6.0" x="32.0" y="674.0" width="52.0" height="52.0" class=""/>
<text x="58.0" y="700.0" class="tap">-</text>
<rect rx="6.0" ry="6.0" x="88.0" y="674.0" width="52.0" height="52.0" class=""/>
<text x="114.0" y="700.0" class="tap">=</text>
<rect rx="6.0" ry="6.0" x="144.0" y="674.0" width="52.0" height="52.0" class=""/>
<text x="170.0" y="700.0" class="tap">[</text>
<rect rx="6.0" ry="6.0" x="200.0" y="674.0" width="52.0" height="52.0" class=""/>
<text x="226.0" y="700.0" class="tap">]</text>
<rect rx="6.0" ry="6.0" x="256.0" y="674.0" width="52.0" height="52.0" class=""/>
<text x="282.0" y="700.0" class="tap">\</text>
<rect rx="6.0" ry="6.0" x="368.0" y="674.0" width="52.0" height="52.0" class=""/>
<text x="394.0" y="700.0" class="tap">LGUI(GRV)</text>
<rect rx="6.0" ry="6.0" x="424.0" y="674.0" width="52.0" height="52.0" class=""/>
<rect rx="6.0" ry="6.0" x="480.0" y="674.0" width="52.0" height="52.0" class=""/>
<text x="506.0" y="700.0" class="tap">`</text>
<rect rx="6.0" ry="6.0" x="536.0" y="674.0" width="52.0" height="52.0" class=""/>
<text x="562.0" y="700.0" class="tap">~</text>
<rect rx="6.0" ry="6.0" x="592.0" y="674.0" width="52.0" height="52.0" class=""/>
<text x="618.0" y="700.0" class="tap">:</text>
<rect rx="6.0" ry="6.0" x="32.0" y="730.0" width="52.0" height="52.0" class=""/>
<text x="58.0" y="756.0" class="tap">ESC</text>
<text x="58.0" y="780.0" class="hold">LSFT</text>
<rect rx="6.0" ry="6.0" x="88.0" y="730.0" width="52.0" height="52.0" class=""/>
<text x="114.0" y="756.0" class="tap">RCTL</text>
<rect rx="6.0" ry="6.0" x="144.0" y="730.0" width="52.0" height="52.0" class=""/>
<text x="170.0" y="756.0" class="tap">RALT</text>
<rect rx="6.0" ry="6.0" x="200.0" y="730.0" width="52.0" height="52.0" class=""/>
<text x="226.0" y="756.0" class="tap">RGUI</text>
<rect rx="6.0" ry="6.0" x="256.0" y="730.0" width="52.0" height="52.0" class=""/>
<text x="282.0" y="756.0" class="tap">&quot;</text>
<rect rx="6.0" ry="6.0" x="368.0" y="730.0" width="52.0" height="52.0" class=""/>
<text x="394.0" y="756.0" class="tap">TAB</text>
<rect rx="6.0" ry="6.0" x="424.0" y="730.0" width="52.0" height="52.0" class=""/>
<rect rx="6.0" ry="6.0" x="480.0" y="730.0" width="52.0" height="52.0" class=""/>
<text x="506.0" y="756.0" class="tap">RCTL</text>
<rect rx="6.0" ry="6.0" x="536.0" y="730.0" width="52.0" height="52.0" class=""/>
<text x="562.0" y="756.0" class="tap">RALT</text>
<rect rx="6.0" ry="6.0" x="592.0" y="730.0" width="52.0" height="52.0" class=""/>
<text x="618.0" y="756.0" class="tap">ENTER</text>
<rect rx="6.0" ry="6.0" x="144.0" y="786.0" width="52.0" height="52.0" class=""/>
<text x="170.0" y="812.0" class="tap">LCTL</text>
<text x="170.0" y="836.0" class="hold">sticky</text>
<rect rx="6.0" ry="6.0" x="200.0" y="786.0" width="52.0" height="52.0" class=""/>
<rect rx="6.0" ry="6.0" x="256.0" y="786.0" width="52.0" height="52.0" class=""/>
<rect rx="6.0" ry="6.0" x="368.0" y="786.0" width="108.0" height="52.0" class=""/>
</g>
<g class="layer-L3">
<text x="30.0" y="868.0" class="label">L3:</text>
<rect rx="6.0" ry="6.0" x="32.0" y="898.0" width="52.0" height="52.0" class=""/>
<text x="58.0" y="924.0" class="tap">F1</text>
<rect rx="6.0" ry="6.0" x="88.0" y="898.0" width="52.0" height="52.0" class=""/>
<text x="114.0" y="924.0" class="tap">F2</text>
<rect rx="6.0" ry="6.0" x="144.0" y="898.0" width="52.0" height="52.0" class=""/>
<text x="170.0" y="924.0" class="tap">F3</text>
<rect rx="6.0" ry="6.0" x="200.0" y="898.0" width="52.0" height="52.0" class=""/>
<text x="226.0" y="924.0" class="tap">F4</text>
<rect rx="6.0" ry="6.0" x="256.0" y="898.0" width="52.0" height="52.0" class=""/>
<text x="282.0" y="924.0" class="tap">F5</text>
<rect rx="6.0" ry="6.0" x="368.0" y="898.0" width="52.0" height="52.0" class=""/>
<text x="394.0" y="924.0" class="tap">
<tspan x="394.0" dy="-0.6em">RGB</tspan><tspan x="394.0" dy="1.2em">VAI</tspan></text>
<rect rx="6.0" ry="6.0" x="424.0" y="898.0" width="52.0" height="52.0" class=""/>
<text x="450.0" y="924.0" class="tap">
<tspan x="450.0" dy="-0.6em">RGB</tspan><tspan x="450.0" dy="1.2em">SAI</tspan></text>
<rect rx="6.0" ry="6.0" x="480.0" y="898.0" width="52.0" height="52.0" class=""/>
<text x="506.0" y="924.0" class="tap">
<tspan x="506.0" dy="-0.6em">RGB</tspan><tspan x="506.0" dy="1.2em">HUI</tspan></text>
<rect rx="6.0" ry="6.0" x="536.0" y="898.0" width="52.0" height="52.0" class=""/>
<text x="562.0" y="924.0" class="tap">
<tspan x="562.0" dy="-0.6em">RGB</tspan><tspan x="562.0" dy="1.2em">MOD</tspan></text>
<rect rx="6.0" ry="6.0" x="592.0" y="898.0" width="52.0" height="52.0" class=""/>
<text x="618.0" y="924.0" class="tap">
<tspan x="618.0" dy="-0.6em">RGB</tspan><tspan x="618.0" dy="1.2em">TOG</tspan></text>
<rect rx="6.0" ry="6.0" x="32.0" y="954.0" width="52.0" height="52.0" class=""/>
<text x="58.0" y="980.0" class="tap">F6</text>
<rect rx="6.0" ry="6.0" x="88.0" y="954.0" width="52.0" height="52.0" class=""/>
<text x="114.0" y="980.0" class="tap">F7</text>
<rect rx="6.0" ry="6.0" x="144.0" y="954.0" width="52.0" height="52.0" class=""/>
<text x="170.0" y="980.0" class="tap">F8</text>
<rect rx="6.0" ry="6.0" x="200.0" y="954.0" width="52.0" height="52.0" class=""/>
<text x="226.0" y="980.0" class="tap">F9</text>
<rect rx="6.0" ry="6.0" x="256.0" y="954.0" width="52.0" height="52.0" class=""/>
<text x="282.0" y="980.0" class="tap">F10</text>
<rect rx="6.0" ry="6.0" x="368.0" y="954.0" width="52.0" height="52.0" class=""/>
<text x="394.0" y="980.0" class="tap">
<tspan x="394.0" dy="-0.6em">RGB</tspan><tspan x="394.0" dy="1.2em">VAD</tspan></text>
<rect rx="6.0" ry="6.0" x="424.0" y="954.0" width="52.0" height="52.0" class=""/>
<text x="450.0" y="980.0" class="tap">
<tspan x="450.0" dy="-0.6em">RGB</tspan><tspan x="450.0" dy="1.2em">SAD</tspan></text>
<rect rx="6.0" ry="6.0" x="480.0" y="954.0" width="52.0" height="52.0" class=""/>
<text x="506.0" y="980.0" class="tap">
<tspan x="506.0" dy="-0.6em">RGB</tspan><tspan x="506.0" dy="1.2em">HUD</tspan></text>
<rect rx="6.0" ry="6.0" x="536.0" y="954.0" width="52.0" height="52.0" class=""/>
<text x="562.0" y="980.0" class="tap">
<tspan x="562.0" dy="-0.6em">RGB</tspan><tspan x="562.0" dy="1.2em">RMOD</tspan></text>
<rect rx="6.0" ry="6.0" x="592.0" y="954.0" width="52.0" height="52.0" class=""/>
<rect rx="6.0" ry="6.0" x="32.0" y="1010.0" width="52.0" height="52.0" class=""/>
<text x="58.0" y="1036.0" class="tap">F11</text>
<text x="58.0" y="1060.0" class="hold">LSFT</text>
<rect rx="6.0" ry="6.0" x="88.0" y="1010.0" width="52.0" height="52.0" class=""/>
<text x="114.0" y="1036.0" class="tap">F12</text>
<rect rx="6.0" ry="6.0" x="144.0" y="1010.0" width="52.0" height="52.0" class=""/>
<rect rx="6.0" ry="6.0" x="200.0" y="1010.0" width="52.0" height="52.0" class=""/>
<rect rx="6.0" ry="6.0" x="256.0" y="1010.0" width="52.0" height="52.0" class=""/>
<text x="282.0" y="1036.0" class="tap">LSFT(LCTL(LGUI(4)))</text>
<rect rx="6.0" ry="6.0" x="368.0" y="1010.0" width="52.0" height="52.0" class=""/>
<text x="394.0" y="1036.0" class="tap">LGUI(TAB)</text>
<rect rx="6.0" ry="6.0" x="424.0" y="1010.0" width="52.0" height="52.0" class=""/>
<text x="450.0" y="1036.0" class="tap">LGUI(GRV)</text>
<rect rx="6.0" ry="6.0" x="480.0" y="1010.0" width="52.0" height="52.0" class=""/>
<rect rx="6.0" ry="6.0" x="536.0" y="1010.0" width="52.0" height="52.0" class=""/>
<rect rx="6.0" ry="6.0" x="592.0" y="1010.0" width="52.0" height="52.0" class=""/>
<text x="618.0" y="1036.0" class="tap">
<tspan x="618.0" dy="-1.7999999999999998em">MAGIC</tspan><tspan x="618.0" dy="1.2em">TOGGLE</tspan><tspan x="618.0" dy="1.2em">CTL</tspan><tspan x="618.0" dy="1.2em">GUI</tspan></text>
<rect rx="6.0" ry="6.0" x="144.0" y="1066.0" width="52.0" height="52.0" class=""/>
<rect rx="6.0" ry="6.0" x="200.0" y="1066.0" width="52.0" height="52.0" class=""/>
<rect rx="6.0" ry="6.0" x="256.0" y="1066.0" width="52.0" height="52.0" class=""/>
<rect rx="6.0" ry="6.0" x="368.0" y="1066.0" width="108.0" height="52.0" class=""/>
</g>
</svg>
